<?xml version="1.0" encoding="utf-8"?>
<!-- Generator: Adobe Illustrator 27.8.1, SVG Export Plug-In . SVG Version: 6.00 Build 0)  -->
<svg version="1.1" id="Layer_1" xmlns="http://www.w3.org/2000/svg" xmlns:xlink="http://www.w3.org/1999/xlink" x="0px" y="0px"
	 viewBox="0 0 429.9483032 254.6556549" style="enable-background:new 0 0 429.9483032 254.6556549;" xml:space="preserve">
<style type="text/css">
	.st0{fill:none;stroke:#E79639;stroke-width:4;stroke-miterlimit:10;}
</style>
<g>
	<g>
		<path class="st0" d="M214.9741516,123.8948975c-17.6649933,0-31.9855042,14.3205109-31.9855042,31.9855042
			s14.3205109,31.9850616,31.9855042,31.9850616s31.9855042-14.3200836,31.9855042-31.9850616
			S232.6391449,123.8948975,214.9741516,123.8948975z M225.6209106,155.8804016
			c-5.8800049,0-10.646759-4.7665405-10.646759-10.646759c0-5.8799896,4.7667542-10.6467438,10.646759-10.6467438
			c5.8802032,0,10.6469574,4.7667542,10.6469574,10.6467438
			C236.267868,151.1138611,231.5011139,155.8804016,225.6209106,155.8804016z"/>
	</g>
	<g>
		<path class="st0" d="M334.684906,207.0814819c34.487915-32.0934601,56.0668335-77.874527,56.0668335-128.7009735
			c0-2.1881409-0.0545044-4.362915-0.1338196-6.5314407c-15.5835266,18.1539459-29.0012207,39.8896408-39.0058899,64.4655533
			C341.9716492,159.9949493,336.4429016,184.0019531,334.684906,207.0814819z"/>
		<path class="st0" d="M389.5778503,58.0851822c-2.0367737-17.7011948-6.6905823-34.6057053-13.5849304-50.3064575
			c-0.2266846-0.5171881-0.9576416-0.5171881-1.1934204-0.0040946
			c-17.5124207,38.1421928-48.2773438,68.9332047-86.3962708,86.4857101
			c-0.3193665,0.146965-0.7003479,0.0150833-0.8615417-0.2978134l-29.4107666-57.1714859
			c-0.2137756-0.4150429-0.7805176-0.4796944-1.0817871-0.1234779l-13.7158356,16.2030716
			c-0.3012543,0.355999-0.8680115,0.2913513-1.0813446-0.1236954L215.5568542,0.855082
			c-0.2439423-0.4734426-0.9205933-0.4734426-1.1645355,0l-26.6955261,51.8920708
			c-0.2137756,0.4148293-0.7805176,0.4796906-1.0817871,0.1234779l-13.7149658-16.2030716
			c-0.3012695-0.3562164-0.8680115-0.2913513-1.0813599,0.1234779L142.4066315,93.962738
			c-0.1611938,0.3128967-0.5417633,0.4447784-0.861557,0.2975998C103.42659,76.7082672,72.6620789,45.9179001,55.149662,7.7763524
			c-0.2357521-0.5133095-0.9675751-0.5133095-1.194706,0.0038786C47.061161,23.479908,42.4003258,40.3807526,40.3634682,58.0802269
			c31.1850395,21.6525078,58.5889015,55.6054802,75.8469391,97.9983063
			c10.7495346,26.4054718,16.390976,53.2171631,17.3857117,78.6951294
			c13.8579407,7.1266479,28.8031769,12.4459229,44.5301056,15.6387024
			c42.9623871,8.7221527,83.934021,1.7496033,118.2462463-16.2117004
			c1.0565491-25.3064423,6.6967163-51.914917,17.3655396-78.1221313
			C330.994751,113.688942,358.3956909,79.7379074,389.5778503,58.0851822z M214.9741516,218.2680511
			c-34.4559326,0-62.38797-27.9320374-62.38797-62.3881989c0-34.4559326,27.9320374-62.38797,62.38797-62.38797
			s62.38797,27.9320374,62.38797,62.38797C277.3621216,190.3360138,249.4300842,218.2680511,214.9741516,218.2680511z"/>
		<path class="st0" d="M39.3221931,71.8393707c-0.5153542,14.0744095,0.6191177,28.570549,3.6058807,43.3030853
			c7.3822136,36.4134979,26.1369667,68.6586609,52.4055977,92.8800964
			c-1.6776276-23.3676453-7.2258759-47.705658-16.9971771-71.7079315
			C68.3299866,111.7343979,54.9091682,89.9952621,39.3221931,71.8393707z"/>
		<path class="st0" d="M420.1563721,41.3239059c-10.4380493,4.2684593-20.6974182,9.8999252-30.5785217,16.7612762
			c0.5222473,4.5376778,0.8704834,9.1275101,1.0400696,13.7638855
			c9.4519653-11.0109291,19.6992798-20.7064857,30.4700928-28.9101295
			C421.957428,42.2767372,421.1679382,40.9102402,420.1563721,41.3239059z"/>
		<path class="st0" d="M8.8602962,42.9389038c10.7677917,8.2012825,21.012249,17.8934784,30.4618969,28.9004669
			c0.1698112-4.6346512,0.5192375-9.2229729,1.041275-13.7591438c-9.8789597-6.8591309-20.13591-12.488903-30.5715675-16.7563515
			C8.7803221,40.9102097,7.99087,42.2767067,8.8602962,42.9389038z"/>
	</g>
</g>
</svg>
